<?xml version="1.0" encoding="UTF-8" standalone="no"?>
<!-- Created with Inkscape (http://www.inkscape.org/) -->

<svg
   width="15.875mm"
   height="15.875mm"
   viewBox="0 0 15.875 15.875"
   version="1.1"
   id="svg990"
   inkscape:version="1.1.1 (c3084ef, 2021-09-22)"
   sodipodi:docname="sourcify.svg"
   xmlns:inkscape="http://www.inkscape.org/namespaces/inkscape"
   xmlns:sodipodi="http://sodipodi.sourceforge.net/DTD/sodipodi-0.dtd"
   xmlns="http://www.w3.org/2000/svg"
   xmlns:svg="http://www.w3.org/2000/svg">
  <sodipodi:namedview
     id="namedview992"
     pagecolor="#ffffff"
     bordercolor="#666666"
     borderopacity="1.0"
     inkscape:pageshadow="2"
     inkscape:pageopacity="0.0"
     inkscape:pagecheckerboard="0"
     inkscape:document-units="mm"
     showgrid="false"
     inkscape:zoom="0.57905443"
     inkscape:cx="384.24712"
     inkscape:cy="511.1782"
     inkscape:window-width="1440"
     inkscape:window-height="872"
     inkscape:window-x="0"
     inkscape:window-y="28"
     inkscape:window-maximized="0"
     inkscape:current-layer="layer1" />
  <defs
     id="defs987" />
  <g
     inkscape:label="Layer 1"
     inkscape:groupmode="layer"
     id="layer1"
     transform="translate(-3.0286537,-13.080962)">
    <g
       id="g972"
       transform="matrix(0.26458333,0,0,0.26458333,3.0286537,13.080962)">
      <path
         d="M 0,30 C 0,46.5685 13.4315,60 30,60 46.5685,60 60,46.5685 60,30 60,13.4315 46.5685,0 30,0 13.4315,0 0,13.4315 0,30 Z"
         fill="#2b50aa"
         id="path874" />
      <path
         d="m 30.0587,59.413 c 16.2119,0 29.3542,-13.1423 29.3542,-29.3542 0,-16.2119 -13.1423,-29.35421 -29.3542,-29.35421 -16.2118,0 -29.354171,13.14231 -29.354171,29.35421 0,16.2119 13.142371,29.3542 29.354171,29.3542 z"
         fill="#2b50aa"
         id="path876" />
      <path
         d="m 21.9326,42.1567 c 0.1284,0.1176 0.2889,0.1819 0.4387,0.1819 0.1497,0 0.3209,-0.0643 0.4387,-0.1819 l 1.4765,-1.4123 c 0.1283,-0.1178 0.2032,-0.289 0.2032,-0.4602 0,-0.1712 -0.0749,-0.3424 -0.2032,-0.46 L 14.0366,30.0343 24.2865,20.2446 c 0.1283,-0.1178 0.2032,-0.289 0.2032,-0.4602 0,-0.1712 -0.0749,-0.3422 -0.2032,-0.46 L 22.81,17.9121 c -0.1285,-0.1176 -0.2782,-0.1819 -0.4387,-0.1819 -0.1605,0 -0.321,0.0643 -0.4387,0.1819 L 9.71403,29.5743 c -0.1284,0.1178 -0.20329,0.2888 -0.20329,0.46 0,0.1712 0.07489,0.3424 0.20329,0.4602 z M 46.0808,30.0343 35.8309,39.8242 c -0.1283,0.1176 -0.2033,0.2888 -0.2033,0.46 0,0.1712 0.075,0.3424 0.2033,0.4602 l 1.4765,1.4123 c 0.1285,0.1176 0.289,0.1819 0.4387,0.1819 0.1498,0 0.321,-0.0643 0.4387,-0.1819 L 50.4034,30.4945 c 0.1283,-0.1178 0.2032,-0.289 0.2032,-0.4602 0,-0.1712 -0.0749,-0.3422 -0.2032,-0.46 L 38.1848,17.9121 c -0.1284,-0.1176 -0.2889,-0.1819 -0.4387,-0.1819 -0.1605,0 -0.3209,0.0643 -0.4387,0.1819 l -1.4765,1.4123 c -0.1283,0.1178 -0.2033,0.2888 -0.2033,0.46 0,0.1712 0.075,0.3424 0.2033,0.4602 z"
         fill="#c5d5ea"
         id="path878" />
      <path
         d="m 21.8471,28.8355 c -0.0107,0.4172 0.1498,0.8131 0.4493,1.1126 l 0.0107,0.0107 c 0.2888,0.289 0.6634,0.4495 1.0699,0.4495 0.3746,0 0.7276,-0.1391 1.0058,-0.3853 l 4.1619,-3.7019 V 37.673 c 0,0.8346 0.6848,1.5194 1.5194,1.5194 0.8345,0 1.5193,-0.6848 1.5193,-1.5194 V 26.3104 l 4.1619,3.702 c 0.2783,0.2461 0.6421,0.3851 1.0058,0.3851 0.4066,0 0.7918,-0.1604 1.0806,-0.4494 l 0.0107,-0.0107 c 0.2996,-0.2995 0.4495,-0.6847 0.4495,-1.1127 -0.0108,-0.4172 -0.182,-0.8024 -0.4922,-1.0913 L 31.0805,21.56 c -0.2782,-0.2568 -0.6419,-0.3959 -1.0164,-0.3959 -0.3745,0 -0.7383,0.1391 -1.0165,0.3959 l -6.7191,6.1734 c -0.2996,0.2995 -0.4814,0.6848 -0.4814,1.1021 z"
         fill="#c5d5ea"
         id="path880" />
    </g>
  </g>
</svg>
