<?xml version="1.0" encoding="UTF-8"?>
<svg width="1445px" height="1445px" viewBox="0 0 1445 1445" version="1.1" xmlns="http://www.w3.org/2000/svg" xmlns:xlink="http://www.w3.org/1999/xlink">
    <!-- Generator: Sketch 53 (72520) - https://sketchapp.com -->
    <title>Artboard</title>
    <desc>Created with Sketch.</desc>
    <g id="Artboard" stroke="none" stroke-width="1" fill="none" fill-rule="evenodd">
        <g id="kleros-symbol-grey-flat" transform="translate(41.000000, 117.000000)" fill="#FFFFFF" fill-rule="nonzero">
            <path d="M400.202936,0 L1085.53556,30.5930708 L1363,646.292053 L971.549202,1209 L282.490982,1164.93034 L0,497.824333 L400.202936,0 Z M902.643081,354.903686 L405.958198,571.629314 L830.592822,899.523948 L902.643081,354.903686 Z M845.138906,246.304517 L448.205988,75.6167542 L364.825362,434.495521 L845.138906,246.304517 Z M744.530277,982.025113 L313.141344,674.384045 L323.576299,1091.256 L744.530277,982.025113 Z M1294.09593,644.934076 L1000.12639,347.017989 L922.535789,919.897844 L1294.09593,644.934076 Z M845.672707,1049.03421 L481.852689,1144.00208 L909.703034,1171.36352 L845.672707,1049.03421 Z M1236.64772,780.099671 L918.174978,1017.03589 L981.45626,1140.54698 L1236.64772,780.099671 Z M1086.00813,116.618087 L1024.15176,243.438162 L1254.39231,477.177133 L1086.00813,116.618087 Z M1008.93842,55.9304419 L604.631289,39.5402223 L938.136562,185.22581 L1008.93842,55.9304419 Z M341.161607,114.57683 L57.9714108,471.706563 L247.307286,511.758173 L341.161607,114.57683 Z M235.890826,581.814115 L45.6423228,541.58631 L244.151832,1008.6431 L235.890826,581.814115 Z" id="Combined-Shape"></path>
        </g>
    </g>
</svg>